<svg width="35" height="35" viewBox="0 0 35 35" fill="none" xmlns="http://www.w3.org/2000/svg">
<path d="M6.34061 0.00488281L31.2918 5.46844H33.9917V34.9997H5.69092C5.21954 34.9997 4.76746 34.8124 4.43415 34.4791C4.10083 34.1458 3.91357 33.6937 3.91357 33.2223V25.7813L6.28811 0.0817187L6.34061 0.00488281Z" fill="#36697F"/>
<path d="M6.34033 0H29.7876C30.259 0 30.7111 0.187255 31.0444 0.520572C31.3777 0.853889 31.5649 1.30596 31.5649 1.77734V24.6094H6.34033V0Z" fill="#37A5CC"/>
<path d="M6.34033 24.6094V0L1.0083 3.21289V27.8223L6.34033 24.6094Z" fill="#7DC6DD"/>
<path d="M18.7387 5.19531C15.5045 5.19531 13.6924 7.06563 13.5953 9.15031H16.7902C16.8681 8.29309 17.3945 7.5723 18.5437 7.5723C19.5374 7.5723 20.1411 8.02047 20.1411 8.91652V9.3841C20.1411 10.5142 19.1477 10.8259 18.1735 10.8259H17.1213V13.1053H18.1735C19.1477 13.1053 20.6284 13.3588 20.6284 14.8395V15.2485C20.6284 16.4757 19.8491 17.0409 18.6605 17.0409C17.2968 17.0409 16.7316 16.2616 16.6343 15.4432H13.4395C13.6538 17.4502 15.0177 19.4567 18.8363 19.4567C21.817 19.4567 24.0185 17.8396 24.0185 15.6382V14.7224C24.0185 12.9495 22.4016 12.0337 21.0571 11.7999C22.4016 11.4882 23.4927 10.4948 23.4927 9.34527V8.6048C23.4924 6.59805 21.505 5.19531 18.7387 5.19531ZM11.293 27.0334V32.2014H12.4004V28.7314L13.3156 32.2014H14.5338V32.1943L15.3978 28.8646V32.2016H16.6231V27.0337H15.0432L15.0505 27.0482L13.9579 31.1825L12.9169 27.0334H11.293ZM18.7627 27.0334L17.2862 32.2014H18.5708L18.8587 31.0721H20.4091L20.7263 32.2014H22.0407L20.4829 27.0334H18.7627ZM22.5745 27.0334L24.036 29.4697L22.4044 32.2014H23.8219L24.8336 30.2526L25.83 32.2016H27.2847L25.6528 29.3593L27.122 27.0337H25.7562L24.8629 28.6798H24.8555L23.9843 27.0337L22.5745 27.0334ZM19.6191 27.8827L20.1578 30.1123H19.095L19.6191 27.8827Z" fill="white"/>
</svg>
