<svg width="28" height="27" viewBox="0 0 28 27" fill="none" xmlns="http://www.w3.org/2000/svg">
<g clip-path="url(#clip0_349_159)">
<path d="M20.8847 3.8457H6.11542C4.58602 3.8457 3.34619 5.08553 3.34619 6.61493V21.3842C3.34619 22.9136 4.58602 24.1534 6.11542 24.1534H20.8847C22.4141 24.1534 23.6539 22.9136 23.6539 21.3842V6.61493C23.6539 5.08553 22.4141 3.8457 20.8847 3.8457Z" stroke="white" stroke-width="2" stroke-linejoin="round"/>
<path d="M19.0386 7.53809H7.96165C7.45185 7.53809 7.03857 7.95136 7.03857 8.46116V19.5381C7.03857 20.0479 7.45185 20.4612 7.96165 20.4612H19.0386C19.5484 20.4612 19.9617 20.0479 19.9617 19.5381V8.46116C19.9617 7.95136 19.5484 7.53809 19.0386 7.53809Z" stroke="white" stroke-width="2" stroke-linejoin="round"/>
<path d="M13.5 3.84615V2M18.1154 3.84615V2M8.88462 3.84615V2M13.5 26V24.1538M18.1154 26V24.1538M8.88462 26V24.1538M23.6538 14H25.5M23.6538 18.6154H25.5M23.6538 9.38462H25.5M1.5 14H3.34615M1.5 18.6154H3.34615M1.5 9.38462H3.34615" stroke="white" stroke-width="2" stroke-linecap="round" stroke-linejoin="round"/>
</g>
<defs>
<clipPath id="clip0_349_159">
<rect width="27" height="27" fill="white" transform="translate(0.5)"/>
</clipPath>
</defs>
</svg>
