<svg width="37" height="35" viewBox="0 0 37 35" fill="none" xmlns="http://www.w3.org/2000/svg">
<g clip-path="url(#clip0_668_302)">
<path d="M1.3173 26.6526C0.941687 27.2654 0.519553 27.9765 0.161158 28.543C0.00695445 28.8036 -0.0388623 29.1143 0.0335537 29.4084C0.10597 29.7024 0.290839 29.9563 0.548435 30.1155L8.0639 34.7404C8.1945 34.8211 8.33985 34.8749 8.49148 34.8988C8.6431 34.9227 8.79796 34.9161 8.94703 34.8795C9.09609 34.8429 9.23638 34.777 9.35971 34.6857C9.48304 34.5943 9.58695 34.4793 9.66536 34.3473C9.96599 33.8442 10.3533 33.191 10.7753 32.4915C13.7525 27.5775 16.7472 28.1788 22.1467 30.7571L29.5986 34.3009C29.7383 34.3674 29.8899 34.4052 30.0444 34.412C30.199 34.4188 30.3533 34.3946 30.4983 34.3407C30.6433 34.2868 30.7761 34.2043 30.8886 34.0982C31.0012 33.9921 31.0913 33.8645 31.1537 33.7229L34.7322 25.6293C34.8537 25.3515 34.8612 25.037 34.7531 24.7537C34.645 24.4704 34.4299 24.2409 34.1541 24.1147C32.5817 23.3747 29.4542 21.9006 26.6387 20.542C16.5101 15.6222 7.90199 15.9402 1.3173 26.6526Z" fill="url(#paint0_linear_668_302)"/>
<path d="M35.0164 8.28502C35.3921 7.67224 35.8141 6.96114 36.1727 6.39459C36.3268 6.13397 36.3726 5.82325 36.3002 5.52922C36.2278 5.2352 36.0429 4.98132 35.7852 4.82216L28.2698 0.197176C28.1382 0.108577 27.9898 0.0479976 27.8338 0.0192062C27.6778 -0.00958521 27.5176 -0.00597309 27.363 0.0298179C27.2085 0.0656089 27.063 0.132813 26.9355 0.227251C26.8081 0.321688 26.7014 0.441339 26.6222 0.578761C26.3216 1.08171 25.9343 1.73504 25.5122 2.43447C22.5349 7.34842 19.5403 6.7473 14.1407 4.16882L6.71204 0.642358C6.57235 0.575882 6.42075 0.538112 6.2662 0.531286C6.11164 0.52446 5.9573 0.548717 5.81229 0.60262C5.66728 0.656524 5.53457 0.738977 5.422 0.845097C5.30944 0.951217 5.21931 1.07885 5.15696 1.22043L1.57828 9.31411C1.45681 9.59193 1.44933 9.90635 1.55746 10.1896C1.66558 10.4729 1.88066 10.7024 2.15635 10.8286C3.72879 11.5688 6.85645 13.0429 9.67182 14.4015C19.8234 19.3154 28.4315 18.9859 35.0162 8.28502" fill="url(#paint1_linear_668_302)"/>
</g>
<defs>
<linearGradient id="paint0_linear_668_302" x1="3452.96" y1="1982.14" x2="2611.33" y2="51.3713" gradientUnits="userSpaceOnUse">
<stop offset="0.18" stop-color="#0052CC"/>
<stop offset="1" stop-color="#2684FF"/>
</linearGradient>
<linearGradient id="paint1_linear_668_302" x1="33.7547" y1="-219.609" x2="876.708" y2="1712.09" gradientUnits="userSpaceOnUse">
<stop offset="0.18" stop-color="#0052CC"/>
<stop offset="1" stop-color="#2684FF"/>
</linearGradient>
<clipPath id="clip0_668_302">
<rect width="36.4228" height="35" fill="white"/>
</clipPath>
</defs>
</svg>
