<svg width="25" height="35" viewBox="0 0 25 35" fill="none" xmlns="http://www.w3.org/2000/svg">
<g clip-path="url(#clip0_777_422)">
<path d="M12.3949 34.9119L2.29417 32.1079L0.0432129 6.86133H24.7769L22.5236 32.104L12.3949 34.9119Z" fill="#264DE4"/>
<path d="M20.5944 30.4959L22.5199 8.9248H12.4099V32.7648L20.5944 30.4959Z" fill="#2965F1"/>
<path d="M5.20342 18.2886L5.4809 21.385H12.41V18.2886H5.20342ZM4.64575 12.0215L4.92721 15.1179H12.41V12.0215H4.64575ZM12.41 26.3303L12.3965 26.3339L8.94804 25.4027L8.72757 22.9332H5.61926L6.05302 27.795L12.3958 29.5557L12.41 29.5518V26.3303Z" fill="#EBEBEB"/>
<path d="M5.86401 0H9.61415V1.56831H7.43232V3.13662H9.61435V4.70483H5.86401V0ZM10.3643 0H14.1145V1.36374H11.9326V1.63647H14.1145V4.77309H10.3644V3.341H12.5463V3.06827H10.3642L10.3643 0ZM14.8646 0H18.6149V1.36374H16.4329V1.63647H18.6149V4.77309H14.8646V3.341H17.0466V3.06827H14.8647L14.8646 0Z" fill="black"/>
<path d="M19.5968 18.2886L20.1557 12.0215H12.3993V15.1179H16.7623L16.4806 18.2886H12.3993V21.385H16.2121L15.8526 25.4008L12.3992 26.3329V29.5543L18.747 27.795L18.7935 27.2719L19.5212 19.1201L19.5968 18.2886Z" fill="white"/>
</g>
<defs>
<clipPath id="clip0_777_422">
<rect width="24.8199" height="35" fill="white"/>
</clipPath>
</defs>
</svg>
