<svg width="25" height="24" viewBox="0 0 25 24" fill="none" xmlns="http://www.w3.org/2000/svg">
<path d="M4.32269 22.9258H7.88891V19.3644H4.32269V22.9258ZM1.34196 16.3837V19.3644H4.32269V16.3837H1.34196ZM23.9006 8.17215C22.7877 4.58173 19.9134 1.72197 16.323 0.59452C8.09214 -1.97491 0.5 4.14623 0.5 11.9948H5.13561C5.13561 7.06889 10.0228 3.26072 15.2052 5.13819C17.1263 5.83015 18.665 7.3689 19.357 9.28508C21.249 14.4626 17.4359 19.3402 12.5148 19.3499V19.3644H12.5003V24C20.3683 24 26.4749 16.4127 23.9006 8.17215ZM12.5148 19.3499V14.7385H7.88891V19.3644H12.5003V19.3499H12.5148Z" fill="#0252CD"/>
</svg>
