<svg width="35" height="35" viewBox="0 0 35 35" fill="none" xmlns="http://www.w3.org/2000/svg">
<g clip-path="url(#clip0_526_386)">
<path d="M31.0042 18.6925H25.4379V15.9093H31.0042V18.6925ZM31.0042 20.2828H25.4379V23.066H31.0042V20.2828ZM31.0042 7.16235H25.4379V9.94547H31.0042V7.16235ZM31.0042 11.5358H25.4379V14.319H31.0042V11.5358ZM31.0042 24.6563H25.4379V27.4395H31.0042V24.6563ZM34.8489 30.1431C34.6899 30.9701 33.6958 30.99 33.0319 31.0179H20.6668V34.5961H18.1977L0 31.4154V3.58805L18.3051 0.40332H20.6668V3.57212H32.6065C33.2784 3.59994 34.018 3.55223 34.6024 3.95377C35.0119 4.54221 34.9722 5.28972 35 5.96559L34.9841 26.6642C34.9643 27.8212 35.0914 29.0021 34.8489 30.1431ZM14.5796 23.9049C13.4823 21.6785 12.3651 19.4678 11.2717 17.2413C12.3532 15.0744 13.4187 12.8996 14.4803 10.7248C13.5777 10.7685 12.6752 10.8242 11.7767 10.8878C11.1047 12.5219 10.3214 14.1122 9.79665 15.802C9.30761 14.2077 8.65956 12.6729 8.06716 11.1184C7.19243 11.1661 6.31771 11.2178 5.44305 11.2695C6.36542 13.3052 7.34754 15.3129 8.24209 17.3605C7.18847 19.3485 6.20245 21.3644 5.18062 23.3642C6.05131 23.4 6.92207 23.4358 7.79276 23.4477C8.41306 21.8653 9.18436 20.3425 9.72508 18.7283C10.2102 20.4618 11.0331 22.0641 11.7091 23.722C12.6673 23.7897 13.6214 23.8493 14.5796 23.9049ZM33.1037 5.46041H20.6668V7.16235H23.8476V9.94547H20.6668V11.5358H23.8476V14.319H20.6668V15.9093H23.8476V18.6925H20.6668V20.2828H23.8476V23.066H20.6668V24.6563H23.8476V27.4395H20.6668V29.2782H33.1037V5.46041Z" fill="#037543"/>
</g>
<defs>
<clipPath id="clip0_526_386">
<rect width="35" height="35" fill="white"/>
</clipPath>
</defs>
</svg>
