<svg width="33" height="24" viewBox="0 0 33 24" fill="none" xmlns="http://www.w3.org/2000/svg">
<path d="M29.3681 3.42899C29.6741 3.42899 29.9222 3.17315 29.9222 2.85756C29.9222 2.54197 29.6741 2.28613 29.3681 2.28613C29.062 2.28613 28.814 2.54197 28.814 2.85756C28.814 3.17315 29.062 3.42899 29.3681 3.42899Z" fill="white"/>
<path d="M27.1515 3.42899C27.4576 3.42899 27.7056 3.17315 27.7056 2.85756C27.7056 2.54197 27.4576 2.28613 27.1515 2.28613C26.8455 2.28613 26.5974 2.54197 26.5974 2.85756C26.5974 3.17315 26.8455 3.42899 27.1515 3.42899Z" fill="white"/>
<path d="M24.935 3.42899C25.241 3.42899 25.4891 3.17315 25.4891 2.85756C25.4891 2.54197 25.241 2.28613 24.935 2.28613C24.6289 2.28613 24.3809 2.54197 24.3809 2.85756C24.3809 3.17315 24.6289 3.42899 24.935 3.42899Z" fill="white"/>
<path fill-rule="evenodd" clip-rule="evenodd" d="M1.66234 24H30.4762C31.3944 24 32.1385 23.2326 32.1385 22.2857V1.71429C32.1385 0.767429 31.3944 0 30.4762 0H1.66234C0.744173 0 0 0.767429 0 1.71429V22.2857C0 23.2326 0.744173 24 1.66234 24ZM31.0303 5.71429V22.2857C31.0303 22.6011 30.7821 22.8571 30.4762 22.8571H1.66234C1.35647 22.8571 1.10823 22.6011 1.10823 22.2857V5.71429H31.0303ZM31.0303 4.57143H1.10823V1.71429C1.10823 1.39886 1.35647 1.14286 1.66234 1.14286H30.4762C30.7821 1.14286 31.0303 1.39886 31.0303 1.71429V4.57143Z" fill="white"/>
<path fill-rule="evenodd" clip-rule="evenodd" d="M11.0728 13.176L9.74187 13.8091C9.5446 13.9029 9.41882 14.1069 9.41993 14.3309C9.42104 14.5549 9.54904 14.7577 9.74741 14.8491L11.0728 15.4617L9.74187 16.0949C9.5446 16.1886 9.41882 16.3926 9.41993 16.6166C9.42104 16.8406 9.54904 17.0434 9.74741 17.1349L15.8426 19.9503C15.9867 20.0166 16.1518 20.0166 16.2959 19.9503L22.3912 17.1349C22.5895 17.0434 22.7175 16.8406 22.7186 16.6166C22.7197 16.3926 22.594 16.1886 22.3967 16.0949L21.0657 15.4617L22.3912 14.8491C22.5895 14.7577 22.7175 14.5549 22.7186 14.3309C22.7197 14.1069 22.594 13.9029 22.3967 13.8091L21.0657 13.176L22.3912 12.5634C22.5895 12.472 22.7175 12.2691 22.7186 12.0451C22.7197 11.8211 22.594 11.6171 22.3967 11.5234L16.3015 8.624C16.1541 8.55372 15.9845 8.55372 15.8371 8.624L9.74187 11.5234C9.5446 11.6171 9.41882 11.8211 9.41993 12.0451C9.42104 12.2691 9.54904 12.472 9.74741 12.5634L11.0728 13.176ZM12.4155 16.0817L11.3133 16.6057L16.0693 18.8023L20.8252 16.6057L19.7231 16.0817L16.2959 17.6646C16.1518 17.7309 15.9867 17.7309 15.8426 17.6646L12.4155 16.0817ZM12.4155 13.796L11.3133 14.32L16.0693 16.5166L20.8252 14.32L19.7231 13.796L16.2959 15.3789C16.1518 15.4451 15.9867 15.4451 15.8426 15.3789L12.4155 13.796ZM20.8252 12.0343L16.0693 14.2309L11.3133 12.0343L16.0693 9.772L20.8252 12.0343Z" fill="white"/>
</svg>
