<svg width="64" height="64" viewBox="0 0 64 64" fill="none" xmlns="http://www.w3.org/2000/svg">
<circle cx="32" cy="32" r="31" fill="white" stroke="#0252CD" stroke-width="2"/>
<path d="M39.6319 50V44.8409C39.7006 43.9838 39.5826 43.1221 39.2859 42.3131C38.9892 41.5042 38.5205 40.7665 37.9109 40.1492C43.6598 39.52 49.7016 37.3809 49.7016 27.5661C49.7011 25.0563 48.7179 22.6428 46.9553 20.8251C47.7899 18.6293 47.7309 16.2023 46.7905 14.0482C46.7905 14.0482 44.6301 13.419 39.6319 16.7086C35.4354 15.5937 31.0125 15.5937 26.8159 16.7086C21.8177 13.419 19.6573 14.0482 19.6573 14.0482C18.7169 16.2023 18.6579 18.6293 19.4925 20.8251C17.7168 22.6563 16.7325 25.0916 16.7462 27.62C16.7462 37.3629 22.7881 39.5021 28.5369 40.2031C27.9346 40.8142 27.47 41.5431 27.1735 42.3421C26.877 43.1412 26.7552 43.9926 26.8159 44.8409V50" stroke="#0252CD" stroke-width="3" stroke-linecap="round" stroke-linejoin="round"/>
<path d="M26.816 46.4045C21.3234 48.1536 16.7463 46.4045 14 41.0117" stroke="#0252CD" stroke-width="3" stroke-linecap="round" stroke-linejoin="round"/>
</svg>
