<svg width="35" height="35" viewBox="0 0 35 35" fill="none" xmlns="http://www.w3.org/2000/svg">
<path d="M17.482 35C26.9229 35 34.5762 27.165 34.5762 17.5C34.5762 7.83502 26.9229 0 17.482 0C8.04106 0 0.387695 7.83502 0.387695 17.5C0.387695 27.165 8.04106 35 17.482 35Z" fill="white"/>
<path d="M17.4817 0.0664062C7.82832 0.0664062 0 7.89192 0 17.5467C0 25.2712 5.00923 31.8233 11.9545 34.1342C12.8277 34.2956 13.1492 33.7551 13.1492 33.2932C13.1492 32.8763 13.1324 31.499 13.1254 30.0389C8.26213 31.0961 7.23586 27.9766 7.23586 27.9766C6.44124 25.9563 5.29422 25.4186 5.29422 25.4186C3.70778 24.3334 5.41356 24.3558 5.41356 24.3558C7.16847 24.4794 8.09366 26.1571 8.09366 26.1571C9.65343 28.8301 12.1833 28.0566 13.1801 27.6101C13.3373 26.48 13.7894 25.7092 14.2906 25.2726C10.4073 24.8303 6.32611 23.3309 6.32611 16.6328C6.32611 14.7248 7.00842 13.1651 8.12736 11.9409C7.94625 11.5014 7.34818 9.72405 8.29723 7.31631C8.29723 7.31631 9.76574 6.84599 13.1057 9.10772C14.4998 8.72024 15.995 8.52649 17.4817 8.51947C18.9671 8.52649 20.4637 8.72024 21.8606 9.10772C25.1978 6.84599 26.6635 7.31631 26.6635 7.31631C27.6153 9.72405 27.0158 11.5028 26.8347 11.9423C27.9551 13.1665 28.6332 14.7263 28.6332 16.6342C28.6332 23.3478 24.5435 24.8275 20.6504 25.2599C21.278 25.8019 21.8367 26.866 21.8367 28.4974C21.8367 30.8364 21.8171 32.719 21.8171 33.2946C21.8171 33.7593 22.1316 34.3055 23.0174 34.1328C29.9599 31.8191 34.9621 25.2684 34.9621 17.5467C34.9621 7.89192 27.1352 0.0664062 17.4817 0.0664062Z" fill="#5C6BC0"/>
</svg>
