<svg width="35" height="35" viewBox="0 0 35 35" fill="none" xmlns="http://www.w3.org/2000/svg">
<g clip-path="url(#clip0_774_410)">
<path fill-rule="evenodd" clip-rule="evenodd" d="M20.7941 1.89272C21.8332 3.53554 21.201 5.62788 19.3821 6.56687L8.07188 12.402C7.77164 12.5568 7.58789 12.8431 7.58789 13.154V22.316C7.58789 22.6269 7.77164 22.9143 8.07188 23.068L17.0204 27.6855C17.1689 27.7613 17.3333 27.8008 17.5 27.8008C17.6667 27.8008 17.8311 27.7613 17.9796 27.6855L26.9281 23.068C27.2284 22.9143 27.4121 22.6269 27.4121 22.316V16.6187L19.3638 20.7183C17.5396 21.6475 15.2261 21.0656 14.1963 19.4184C13.1666 17.7712 13.8108 15.6822 15.6362 14.7517L27.1515 8.88562C30.6603 7.0987 35 9.38655 35 13.0238V23.0117C35 25.3509 33.6115 27.5105 31.3619 28.6718L21.0826 33.9746C18.8628 35.1198 16.1372 35.1198 13.9174 33.9746L3.63809 28.6713C1.38852 27.5105 0 25.3507 0 23.0114V12.4594C0 10.1205 1.38852 7.95948 3.63809 6.79956L15.6179 0.618506C17.4371 -0.319385 19.7537 0.251006 20.7941 1.89272Z" fill="url(#paint0_linear_774_410)"/>
</g>
<defs>
<linearGradient id="paint0_linear_774_410" x1="26.3432" y1="5.409" x2="10.8754" y2="32.3425" gradientUnits="userSpaceOnUse">
<stop stop-color="#FFB45B"/>
<stop offset="1" stop-color="#FF8A00"/>
</linearGradient>
<clipPath id="clip0_774_410">
<rect width="35" height="35" fill="white"/>
</clipPath>
</defs>
</svg>
