<svg width="35" height="35" viewBox="0 0 35 35" fill="none" xmlns="http://www.w3.org/2000/svg">
<g clip-path="url(#clip0_774_412)">
<path d="M26.7969 0H8.20312C3.67266 0 0 3.67266 0 8.20312V26.7969C0 31.3273 3.67266 35 8.20312 35H26.7969C31.3273 35 35 31.3273 35 26.7969V8.20312C35 3.67266 31.3273 0 26.7969 0Z" fill="#430098"/>
<path d="M9.57031 29.8047V22.7734L13.5254 26.2891L9.57031 29.8047ZM21.875 29.8047V19.3062C21.8579 18.4857 21.4628 17.5 19.6778 17.5C16.1033 17.5 12.0936 19.2979 12.0537 19.3158L9.57031 20.4408V5.19531H13.0859V15.1758C14.8411 14.6044 17.2945 13.9844 19.6778 13.9844C21.8508 13.9844 23.1515 14.8386 23.86 15.5554C25.3721 17.0846 25.3928 19.0328 25.3907 19.2578V29.8047H21.875ZM22.754 10.9082H19.2382C20.6199 9.09535 21.4874 7.18785 21.875 5.19531H25.3906C25.1534 7.19223 24.3439 9.10643 22.754 10.9082Z" fill="white"/>
</g>
<defs>
<clipPath id="clip0_774_412">
<rect width="35" height="35" fill="white"/>
</clipPath>
</defs>
</svg>
