<svg width="25" height="35" viewBox="0 0 25 35" fill="none" xmlns="http://www.w3.org/2000/svg">
<g clip-path="url(#clip0_777_416)">
<path d="M24.7769 6.86133L22.5236 32.104L12.3949 34.9119L2.29417 32.1079L0.0432129 6.86133H24.7769Z" fill="#E44D26"/>
<path d="M12.4099 32.7648L20.5944 30.4959L22.5199 8.9248H12.4099V32.7648Z" fill="#F16529"/>
<path d="M8.0297 15.1179H12.41V12.0215H4.64575L4.71982 12.8522L5.4809 21.385H12.41V18.2886H8.3127L8.0297 15.1179ZM8.72757 22.9332H5.61926L6.05302 27.795L12.3958 29.5557L12.41 29.5518V26.3303L12.3965 26.3339L8.94804 25.4027L8.72757 22.9332Z" fill="#EBEBEB"/>
<path d="M2.34424 0H3.91778V1.55464H5.35724V0H6.93089V4.70784H5.35734V3.13139H3.91788V4.70784H2.34434L2.34424 0ZM9.00006 1.56123H7.61499V0H11.9598V1.56123H10.5739V4.70784H9.00035V1.56123H9.00006ZM12.6494 0H14.2901L15.2994 1.65421L16.3077 0H17.9491V4.70784H16.382V2.37438L15.2994 4.04827H15.2722L14.189 2.37438V4.70784H12.6494V0ZM18.7322 0H20.3062V3.15175H22.5191V4.70784H18.7321L18.7322 0Z" fill="black"/>
<path d="M12.3993 21.385H16.2121L15.8526 25.4008L12.3992 26.3329V29.5543L18.747 27.795L18.7935 27.2719L19.5212 19.1201L19.5968 18.2886H12.3993V21.385ZM12.3993 15.1103V15.1179H19.8785L19.9406 14.4219L20.0817 12.8522L20.1557 12.0215H12.3993V15.1103Z" fill="white"/>
</g>
<defs>
<clipPath id="clip0_777_416">
<rect width="24.8199" height="35" fill="white"/>
</clipPath>
</defs>
</svg>
