<svg width="36" height="35" viewBox="0 0 36 35" fill="none" xmlns="http://www.w3.org/2000/svg">
<g clip-path="url(#clip0_668_322)">
<path d="M29.89 0H5.95C2.66391 0 0 2.66391 0 5.95V28.994C0 32.2801 2.66391 34.944 5.95 34.944H29.89C33.1761 34.944 35.84 32.2801 35.84 28.994V5.95C35.84 2.66391 33.1761 0 29.89 0Z" fill="#330000"/>
<path d="M17.3674 20.971H11.8136L10.6835 24.4813C10.6681 24.5453 10.6309 24.602 10.5782 24.6415C10.5255 24.681 10.4607 24.7009 10.395 24.6977H7.58194C7.42159 24.6977 7.3655 24.6095 7.41366 24.4331L12.2222 10.5846C12.2703 10.4404 12.3184 10.2761 12.3664 10.0918C12.4294 9.77091 12.4616 9.44499 12.4626 9.11809C12.4593 9.09522 12.4614 9.07191 12.4687 9.04999C12.476 9.02808 12.4883 9.00816 12.5047 8.99182C12.521 8.97548 12.5409 8.96316 12.5628 8.95585C12.5847 8.94853 12.608 8.94642 12.6309 8.94967H16.4537C16.5657 8.94967 16.6299 8.9898 16.6461 9.07007L22.1037 24.4572C22.1518 24.6177 22.1037 24.6979 21.9595 24.6977H18.8339C18.7802 24.7036 18.7263 24.6897 18.682 24.6588C18.6378 24.6278 18.6064 24.5819 18.5935 24.5294L17.3674 20.971ZM12.6791 17.9417H16.4778L16.4236 17.763L16.3367 17.4799L16.2747 17.2811L16.1757 16.968L15.9653 16.3091L15.7802 15.7248L15.2996 14.203C15.1799 13.8247 15.0651 13.4449 14.9552 13.0637L14.8673 12.7543L14.7645 12.3885L14.6077 11.8215L14.5783 11.7147H14.5544C14.434 12.2918 14.2875 12.8631 14.1153 13.4269L13.7586 14.5743L13.5623 15.2082L13.3642 15.85C13.3285 15.9659 13.2928 16.0805 13.2571 16.1938L13.1507 16.5296L13.0449 16.8574L12.9396 17.1772L12.8349 17.489C12.8002 17.5916 12.7655 17.6929 12.7309 17.7928L12.6791 17.9417ZM25.3492 11.4982C25.104 11.508 24.8595 11.466 24.6316 11.3749C24.4038 11.2837 24.1977 11.1455 24.0269 10.9693C23.8567 10.7854 23.7244 10.5696 23.6378 10.3344C23.5511 10.0992 23.5117 9.84928 23.5219 9.59885C23.5132 9.35093 23.5569 9.10395 23.6501 8.87405C23.7433 8.64415 23.884 8.4365 24.0629 8.26465C24.408 7.93336 24.8676 7.74796 25.346 7.74707L25.3972 7.74763C25.9743 7.74763 26.4272 7.91992 26.7558 8.26451C26.9216 8.44361 27.0505 8.65365 27.1351 8.88261C27.2196 9.11157 27.2582 9.35496 27.2486 9.59885C27.2588 9.8503 27.2182 10.1012 27.1294 10.3367C27.0406 10.5721 26.9054 10.7873 26.7317 10.9695C26.5564 11.1422 26.3484 11.2781 26.1198 11.3692C25.8911 11.4604 25.6466 11.5048 25.4006 11.5001L25.3492 11.4982ZM23.6902 24.4572V12.9649C23.6901 12.8206 23.7542 12.7484 23.8826 12.7484H26.8399C26.9681 12.7484 27.0322 12.8206 27.0323 12.9649V24.4572C27.0323 24.6177 26.9682 24.6979 26.8399 24.6977H23.9066C23.77 24.6977 23.6981 24.6258 23.6909 24.4818L23.6902 24.4572Z" fill="#FF9A00"/>
</g>
<defs>
<clipPath id="clip0_668_322">
<rect width="35.84" height="35" fill="white"/>
</clipPath>
</defs>
</svg>
