<svg width="64" height="64" viewBox="0 0 64 64" fill="none" xmlns="http://www.w3.org/2000/svg">
<circle cx="32" cy="32" r="31" fill="white" stroke="#0252CD" stroke-width="2"/>
<path d="M24.8571 28.1786V39.25M38.1429 39.25V33.7143C38.1429 32.5398 37.6763 31.4133 36.8458 30.5828C36.0152 29.7523 34.8888 29.2857 33.7143 29.2857C32.5398 29.2857 31.4133 29.7523 30.5828 30.5828C29.7523 31.4133 29.2857 32.5398 29.2857 33.7143V39.25V28.1786M23.75 24.8571H25.9643M18.2143 16H44.7857C45.373 16 45.9362 16.2333 46.3514 16.6485C46.7667 17.0638 47 17.627 47 18.2143V44.7857C47 45.373 46.7667 45.9362 46.3514 46.3514C45.9362 46.7667 45.373 47 44.7857 47H18.2143C17.627 47 17.0638 46.7667 16.6485 46.3514C16.2333 45.9362 16 45.373 16 44.7857V18.2143C16 17.627 16.2333 17.0638 16.6485 16.6485C17.0638 16.2333 17.627 16 18.2143 16Z" stroke="#0252CD" stroke-width="2"/>
</svg>
