<svg width="45" height="45" viewBox="0 0 45 45" fill="none" xmlns="http://www.w3.org/2000/svg">
<rect x="45" y="45" width="45" height="45" rx="22.5" transform="rotate(180 45 45)" fill="url(#paint0_angular_433_269)"/>
<path d="M16.1682 22.5754C16.1682 21.9944 16.2451 21.4333 16.3989 20.8921C16.547 20.3566 16.7578 19.8525 17.0312 19.3796C17.3047 18.9125 17.6351 18.4853 18.0225 18.0979C18.4098 17.7105 18.8371 17.3773 19.3042 17.0981C19.7713 16.8247 20.2755 16.6139 20.8167 16.4658C21.3578 16.312 21.9189 16.2351 22.5 16.2351C23.0811 16.2351 23.6422 16.312 24.1833 16.4658C24.7188 16.6139 25.223 16.8247 25.6958 17.0981C26.1629 17.3773 26.5902 17.7105 26.9775 18.0979C27.3649 18.4853 27.6982 18.9125 27.9773 19.3796C28.2507 19.8525 28.4644 20.3566 28.6182 20.8921C28.7663 21.4333 28.8403 21.9944 28.8403 22.5754C28.8403 23.1565 28.7663 23.7176 28.6182 24.2588C28.4644 24.8 28.2507 25.3041 27.9773 25.7712C27.6982 26.2384 27.3649 26.6656 26.9775 27.053C26.5902 27.4403 26.1629 27.7708 25.6958 28.0442C25.223 28.3176 24.7188 28.5284 24.1833 28.6765C23.6422 28.8303 23.0811 28.9072 22.5 28.9072C21.9189 28.9072 21.3578 28.8303 20.8167 28.6765C20.2755 28.5284 19.7713 28.3176 19.3042 28.0442C18.8371 27.7708 18.4098 27.4403 18.0225 27.053C17.6351 26.6656 17.3047 26.2384 17.0312 25.7712C16.7578 25.3041 16.547 24.8 16.3989 24.2588C16.2451 23.7176 16.1682 23.1565 16.1682 22.5754ZM18.6035 22.5754C18.6035 23.1109 18.7061 23.6151 18.9111 24.0879C19.1162 24.5664 19.3953 24.9794 19.7485 25.3269C20.096 25.6801 20.509 25.9592 20.9875 26.1643C21.4604 26.3694 21.9645 26.4719 22.5 26.4719C23.0412 26.4719 23.5482 26.3694 24.021 26.1643C24.4938 25.9592 24.9068 25.6801 25.26 25.3269C25.6132 24.9794 25.8923 24.5664 26.0974 24.0879C26.3025 23.6151 26.405 23.1109 26.405 22.5754C26.405 22.04 26.3025 21.5358 26.0974 21.063C25.8923 20.5959 25.6132 20.1857 25.26 19.8325C24.9068 19.4793 24.4938 19.2002 24.021 18.9951C23.5482 18.79 23.0412 18.6875 22.5 18.6875C21.9645 18.6875 21.4604 18.79 20.9875 18.9951C20.509 19.2002 20.096 19.4793 19.7485 19.8325C19.3953 20.1857 19.1162 20.5959 18.9111 21.063C18.7061 21.5358 18.6035 22.04 18.6035 22.5754Z" fill="white"/>
<defs>
<radialGradient id="paint0_angular_433_269" cx="0" cy="0" r="1" gradientUnits="userSpaceOnUse" gradientTransform="translate(67.5 79) rotate(90) scale(11)">
<stop stop-color="#0252CD"/>
<stop offset="1" stop-color="#0252CD" stop-opacity="0.33"/>
</radialGradient>
</defs>
</svg>
