<svg width="34" height="35" viewBox="0 0 34 35" fill="none" xmlns="http://www.w3.org/2000/svg">
<path d="M21.4723 0.0795522L2.10574 1.50981C0.543709 1.64525 0 2.66606 0 3.88983V25.1207C0 26.0738 0.338264 26.8893 1.15494 27.979L5.70731 33.8985C6.45516 34.8517 7.13522 35.0558 8.56326 34.9882L31.0528 33.6267C32.9544 33.4913 33.4993 32.6059 33.4993 31.1091V7.22419C33.4993 6.4507 33.1936 6.22785 32.2941 5.56755L32.139 5.45553L25.958 1.10036C24.4623 0.0130771 23.8512 -0.124584 21.4723 0.0795522ZM9.0719 6.83332C7.23559 6.95698 6.81907 6.98499 5.77614 6.13677L3.12433 4.0275C2.85477 3.75453 2.99007 3.41378 3.66909 3.34613L22.2866 1.98587C23.8499 1.84939 24.6642 2.39414 25.2756 2.8702L28.4686 5.18374C28.6051 5.25244 28.9447 5.65967 28.5363 5.65967L9.30992 6.81697L9.0719 6.83332ZM6.93108 30.9049V10.6284C6.93108 9.74292 7.20287 9.33465 8.01719 9.26582L30.0996 7.97308C30.8487 7.90543 31.1871 8.38136 31.1871 9.26582V29.4069C31.1871 30.2924 31.0504 31.0413 29.8278 31.1091L8.69621 32.334C7.47361 32.4017 6.93108 31.9946 6.93108 30.9049ZM27.7909 11.7156C27.9262 12.3281 27.7909 12.9407 27.1784 13.0107L26.1599 13.2125V28.183C25.2756 28.6589 24.4613 28.9308 23.781 28.9308C22.6938 28.9308 22.4219 28.5901 21.6076 27.5704L14.9472 17.0916V27.2298L17.054 27.7069C17.054 27.7069 17.054 28.932 15.3543 28.932L10.6678 29.2038C10.5313 28.9308 10.6678 28.2506 11.1428 28.1153L12.3665 27.7757V14.3711L10.668 14.2334C10.5313 13.621 10.8708 12.7365 11.8229 12.6677L16.8512 12.3294L23.7811 22.9436V13.5533L22.0148 13.3502C21.8783 12.6 22.4219 12.0553 23.1009 11.9888L27.7909 11.7156Z" fill="black"/>
</svg>
