<svg width="35" height="35" viewBox="0 0 35 35" fill="none" xmlns="http://www.w3.org/2000/svg">
<g clip-path="url(#clip0_668_311)">
<path d="M26.7969 0H8.20312C3.67266 0 0 3.67266 0 8.20312V26.7969C0 31.3273 3.67266 35 8.20312 35H26.7969C31.3273 35 35 31.3273 35 26.7969V8.20312C35 3.67266 31.3273 0 26.7969 0Z" fill="#001E36"/>
<path d="M7.875 24.341V9.33478C7.875 9.23266 7.91875 9.17441 8.02088 9.17441C8.26875 9.17441 8.50213 9.17441 8.8375 9.15978C9.1875 9.14516 9.55213 9.14516 9.94588 9.13066C10.3396 9.11604 10.7625 9.11603 11.2146 9.10141C11.6666 9.08691 12.1041 9.08691 12.5416 9.08691C13.7375 9.08691 14.7291 9.23266 15.5459 9.53891C16.2779 9.78757 16.9454 10.1961 17.5 10.7348C17.9698 11.2063 18.3329 11.7733 18.5646 12.3973C18.7834 13.0098 18.9 13.6369 18.9 14.2932C18.9 15.5473 18.6083 16.5827 18.025 17.3994C17.4416 18.216 16.625 18.8285 15.6771 19.1785C14.6854 19.5432 13.5916 19.6744 12.3959 19.6744C12.0459 19.6744 11.8125 19.6744 11.6666 19.6598C11.5207 19.6452 11.3166 19.6452 11.0396 19.6452V24.3264C11.0541 24.4285 10.9812 24.516 10.8791 24.5307H8.05C7.93338 24.5307 7.875 24.4723 7.875 24.341ZM11.0541 11.9889V16.8889C11.2584 16.9035 11.4479 16.9182 11.6229 16.9182H12.3959C12.9646 16.9182 13.5334 16.8307 14.0729 16.6557C14.5396 16.5244 14.9479 16.2473 15.2688 15.8827C15.575 15.5182 15.7209 15.0223 15.7209 14.3807C15.7346 13.9249 15.6182 13.4747 15.3854 13.0827C15.1375 12.7035 14.7875 12.4119 14.3646 12.2514C13.825 12.0327 13.2416 11.9452 12.6438 11.9598C12.2646 11.9598 11.9291 11.9598 11.6521 11.9744C11.3604 11.9598 11.1562 11.9744 11.0541 11.9889ZM28 15.9994C27.5625 15.766 27.0959 15.6057 26.6 15.5035C26.0604 15.3869 25.5209 15.3139 24.9666 15.3139C24.675 15.2994 24.3687 15.3432 24.0916 15.416C23.9021 15.4598 23.7416 15.5619 23.6396 15.7077C23.5666 15.8244 23.5229 15.9702 23.5229 16.1014C23.5229 16.2327 23.5812 16.3639 23.6687 16.4807C23.8 16.641 23.975 16.7723 24.1646 16.8744C24.5028 17.0495 24.8482 17.21 25.2 17.3557C25.9875 17.6182 26.7459 17.9827 27.4459 18.4202C27.9271 18.7264 28.3209 19.1348 28.5979 19.6307C28.8312 20.0973 28.9479 20.6077 28.9334 21.1327C28.9479 21.8182 28.7438 22.5035 28.3646 23.0723C27.9578 23.6544 27.3903 24.1054 26.7313 24.3702C26.0166 24.6764 25.1416 24.8369 24.0916 24.8369C23.4209 24.8369 22.7646 24.7785 22.1084 24.6473C21.594 24.5585 21.0938 24.4015 20.6209 24.1807C20.5187 24.1223 20.4459 24.0202 20.4604 23.9035V21.366C20.4604 21.3223 20.475 21.2639 20.5188 21.2348C20.5625 21.2057 20.6062 21.2202 20.65 21.2494C21.2187 21.5848 21.8166 21.8182 22.4584 21.9639C23.0125 22.1098 23.5959 22.1827 24.1791 22.1827C24.7334 22.1827 25.1271 22.1098 25.3896 21.9785C25.6229 21.8764 25.7834 21.6285 25.7834 21.366C25.7834 21.1619 25.6666 20.9723 25.4334 20.7827C25.2 20.5932 24.7187 20.3744 24.0041 20.0973C23.2711 19.8389 22.575 19.4859 21.9334 19.0473C21.4763 18.7216 21.0977 18.2981 20.825 17.8077C20.5916 17.341 20.475 16.8307 20.4896 16.3202C20.4896 15.6932 20.6646 15.0952 20.9854 14.5557C21.35 13.9723 21.8896 13.5057 22.5166 13.2139C23.2021 12.8639 24.0625 12.7035 25.0979 12.7035C25.6959 12.7035 26.3084 12.7473 26.9063 12.8348C27.3438 12.8932 27.7666 13.0098 28.1604 13.1702C28.2188 13.1848 28.2771 13.2432 28.3063 13.3014C28.3209 13.3598 28.3354 13.4182 28.3354 13.4764V15.8535C28.3354 15.9119 28.3062 15.9702 28.2625 15.9994C28.1312 16.0285 28.0584 16.0285 28 15.9994Z" fill="#31A8FF"/>
</g>
<defs>
<clipPath id="clip0_668_311">
<rect width="35" height="35" fill="white"/>
</clipPath>
</defs>
</svg>
