<svg width="36" height="35" viewBox="0 0 36 35" fill="none" xmlns="http://www.w3.org/2000/svg">
<path d="M34.2063 3.66282H21.1546V0H18.847L0 3.26406V31.7442L18.6232 35H21.1546V30.9302H33.3679C34.0638 30.8977 34.8371 30.9669 35.4312 30.5355C35.9033 29.807 35.7889 28.8953 35.8296 28.0733V5.25821C35.9232 4.32217 35.1423 3.5733 34.2063 3.66282ZM11.9365 18.8512C11.0128 19.3232 9.95457 19.2581 8.94938 19.2256L8.94532 23.9994L6.52378 23.7959L6.52784 10.7524C8.73778 10.8581 11.4156 9.87737 13.2471 11.5337C15.0011 13.6623 14.5371 17.5773 11.9365 18.8512ZM33.8849 29.0095H21.1546V26.4534H30.922V24.8256H21.1546V22.7908H30.922V21.1628H21.1586C21.1586 21.1628 21.1546 19.5675 21.1505 18.7698C22.7621 19.2704 24.5976 19.2582 26.0382 18.2896C27.597 17.3658 28.4109 15.6036 28.5452 13.8454H23.1894V8.53032L21.1546 8.9414V5.58355H33.8849V29.0095ZM24.0031 7.67968C26.8315 7.80987 29.2127 10.201 29.3633 13.0213H24.0031V7.67968ZM8.94532 12.9541C9.74704 12.9174 10.7401 12.7709 11.2813 13.5238C11.7453 14.3215 11.7209 15.3715 11.3342 16.1936C10.8703 17.0319 9.82025 16.9506 9.01041 17.0483C8.92502 15.6849 8.93307 14.3215 8.94532 12.9541Z" fill="#CB4424"/>
</svg>
