<svg width="36" height="35" viewBox="0 0 36 35" fill="none" xmlns="http://www.w3.org/2000/svg">
<g clip-path="url(#clip0_668_325)">
<path d="M6.34662 0H29.4934C33.0026 0 35.84 2.83738 35.84 6.34662V28.5974C35.84 32.1066 33.0026 34.944 29.4934 34.944H6.34662C2.83738 34.944 0 32.1066 0 28.5974V6.34662C0 2.83738 2.83738 0 6.34662 0Z" fill="#00005B"/>
<path d="M8.51221 24.506V9.13956C8.51221 9.03498 8.55701 8.97534 8.66159 8.97534L8.87831 8.97492L9.04603 8.97352L9.16433 8.97128L9.29033 8.96806L9.42571 8.9633L9.49781 8.96036C9.63221 8.95476 9.76871 8.95126 9.90801 8.94832L10.3357 8.93936C10.3843 8.93824 10.4334 8.93694 10.4828 8.93544L10.6326 8.93054C10.767 8.92569 10.9048 8.92196 11.0459 8.91934L11.4789 8.91164L11.7787 8.90506L11.932 8.90058C12.2405 8.89078 12.5425 8.88742 12.8423 8.8863L13.2908 8.88574C14.5154 8.88574 15.5308 9.03498 16.3672 9.34858C17.1168 9.60322 17.8003 10.0215 18.3682 10.5732C18.8493 11.056 19.2211 11.6366 19.4584 12.2756C19.6824 12.9028 19.8018 13.5449 19.8018 14.2169C19.8018 15.5012 19.5031 16.5615 18.9058 17.3977C18.3084 18.234 17.4722 18.8612 16.5016 19.2196C15.5199 19.5805 14.4406 19.718 13.2637 19.7268H12.8368L12.6706 19.7251L12.5641 19.7226L12.5014 19.7199L12.4451 19.7166L12.3948 19.7124C12.3626 19.7092 12.3303 19.7068 12.2979 19.7051L12.2251 19.7019L12.1453 19.6998L12.0122 19.6979L11.7528 19.6974V24.491C11.7676 24.5956 11.693 24.6852 11.5884 24.7001H8.69141C8.57199 24.7001 8.51221 24.6404 8.51221 24.506ZM11.7676 11.8574V16.875L11.9432 16.8876C12.0786 16.898 12.2143 16.9037 12.35 16.9049H13.1416C13.724 16.9049 14.3064 16.8153 14.8588 16.6361C15.3368 16.5017 15.7548 16.218 16.0834 15.8446C16.397 15.4713 16.5464 14.9636 16.5464 14.3065C16.5604 13.8399 16.4412 13.3788 16.2028 12.9774C15.9596 12.6054 15.6203 12.3156 15.2113 12.1475L15.1576 12.1262C14.605 11.9022 14.0076 11.8126 13.3954 11.8276L13.0502 11.828L12.8879 11.829L12.7329 11.8311L12.5858 11.8344C12.514 11.8363 12.4454 11.839 12.38 11.8425C12.3479 11.8409 12.3158 11.8396 12.2837 11.8386L12.1942 11.8367L12.1522 11.8364L12.073 11.8368L12.001 11.8388L11.9677 11.8402L11.9065 11.8437L11.8527 11.8479L11.8285 11.8501L11.7861 11.855L11.7676 11.8574ZM21.8924 12.7236H24.5058C24.6468 12.7236 24.7613 12.8168 24.8113 12.9404L24.8194 12.9625C24.8642 13.082 24.894 13.2014 24.909 13.3358C24.9388 13.4852 24.9688 13.6494 24.9836 13.7988L24.9962 13.9432C25.006 14.0666 25.0136 14.1978 25.0136 14.3364C25.4413 13.8371 25.9542 13.4176 26.5284 13.0975L26.6114 13.0521C27.2984 12.6638 28.0898 12.4697 28.8812 12.4697C28.9858 12.4548 29.0754 12.5294 29.0904 12.634V15.6057C29.0904 15.7252 29.0156 15.77 28.8514 15.77C28.3496 15.756 27.835 15.7942 27.3436 15.8964L27.2386 15.9193C26.8055 16.0089 26.3874 16.1433 25.9842 16.3225C25.7004 16.4569 25.4316 16.6361 25.2226 16.875V24.491C25.2226 24.6404 25.1628 24.7001 25.0284 24.7001H22.0866C21.9672 24.715 21.8626 24.6404 21.8476 24.5209V16.1881C21.8476 15.8297 21.8476 15.4564 21.8328 15.0681L21.8238 14.7769L21.8118 14.1945C21.8095 14.0975 21.8066 14.0004 21.8028 13.9033C21.8028 13.5598 21.773 13.2313 21.7432 12.8878C21.7282 12.8132 21.773 12.7385 21.8476 12.7236C21.8476 12.7108 21.8696 12.709 21.8853 12.718L21.8924 12.7236Z" fill="#9999FF"/>
</g>
<defs>
<clipPath id="clip0_668_325">
<rect width="35.84" height="35" fill="white"/>
</clipPath>
</defs>
</svg>
