<svg width="37" height="35" viewBox="0 0 37 35" fill="none" xmlns="http://www.w3.org/2000/svg">
<path d="M21.0416 0V3.64715H35.7981C36.4322 3.64715 36.9463 4.16122 36.9463 4.79544V29.8984C36.9463 30.5325 36.4322 31.0466 35.7981 31.0466H21.0416V35L0 31.2761V3.71729L21.0416 0ZM14.0593 15.3136C14.1301 14.1924 13.8639 13.0558 13.1097 12.3288C12.2121 11.4635 11.6138 11.312 9.04781 11.4448L6.96337 11.5528V23.3262H9.08273V19.2391C12.9928 19.5728 13.8991 17.3174 14.0593 15.3136ZM11.6234 15.3136C11.5126 17.2267 10.6265 17.1462 9.08259 17.1198V13.5624C10.8178 13.5012 11.5669 13.7389 11.6234 15.3136ZM34.0905 15.3033L30.1136 19.4512L25.9564 15.3033H29.0646V9.8537H21.0416V20.5076L24.2363 17.3638L28.9889 22.1199C28.9889 22.1199 24.3375 26.6566 24.2271 26.6566C24.1169 26.6566 21.0416 23.7238 21.0416 23.7238V29.8356H35.7252V4.85815H21.0416V7.88566H31.0325V15.3032L34.0905 15.3033Z" fill="#2D6E35"/>
</svg>
