<svg width="32" height="36" viewBox="0 0 32 36" fill="none" xmlns="http://www.w3.org/2000/svg">
<path d="M16.064 0.348878C14.7651 0.355031 13.5253 0.465477 12.4337 0.658682C9.21878 1.22661 8.63547 2.41537 8.63547 4.608V7.50331H16.2323V8.46841H5.78416C3.57646 8.46841 1.64317 9.79531 1.03833 12.3205C0.340579 15.214 0.309814 17.0199 1.03833 20.0413C1.57826 22.2906 2.86793 23.8928 5.07595 23.8928H7.68822V20.4219C7.68822 17.9142 9.85747 15.7025 12.434 15.7025H20.0223C22.1346 15.7025 23.8205 13.9631 23.8205 11.8421V4.60831C23.8205 2.5492 22.0835 1.00264 20.0223 0.65899C18.7166 0.441788 17.3626 0.343032 16.064 0.348878ZM11.9556 2.67749C12.7402 2.67749 13.3813 3.32879 13.3813 4.12991C13.3813 4.92765 12.7405 5.5728 11.9556 5.5728C11.1681 5.5728 10.5303 4.92765 10.5303 4.12991C10.53 3.32879 11.1681 2.67749 11.9556 2.67749Z" fill="url(#paint0_linear_777_435)"/>
<path d="M24.7676 8.46906V11.8428C24.7676 14.4578 22.55 16.659 20.0217 16.659H12.4335C10.355 16.659 8.63525 18.4382 8.63525 20.5198V27.7542C8.63525 29.8127 10.4252 31.0239 12.4335 31.6143C14.8381 32.321 17.1443 32.4489 20.0217 31.6143C21.9341 31.0602 23.82 29.9459 23.82 27.7542V24.8586H16.2321V23.8932H27.6189C29.8266 23.8932 30.6499 22.3534 31.4178 20.0417C32.2109 17.662 32.1767 15.3734 31.4178 12.3209C30.872 10.1227 29.83 8.46875 27.6189 8.46875L24.7676 8.46906ZM20.4995 26.7888C21.2874 26.7888 21.9252 27.4339 21.9252 28.2323C21.9252 29.0328 21.2871 29.6841 20.4995 29.6841C19.715 29.6841 19.0742 29.0328 19.0742 28.2323C19.0742 27.4339 19.715 26.7888 20.4995 26.7888Z" fill="url(#paint1_linear_777_435)"/>
<path opacity="0.444" d="M26.4987 33.3746C26.4987 34.4646 21.9406 35.3485 16.3183 35.3485C10.6956 35.3485 6.13745 34.4646 6.13745 33.3746C6.13745 32.2846 10.6953 31.4004 16.3183 31.4004C21.9406 31.4004 26.4987 32.284 26.4987 33.3746Z" fill="url(#paint2_radial_777_435)"/>
<defs>
<linearGradient id="paint0_linear_777_435" x1="-0.258149" y1="1.25418" x2="17.2638" y2="16.1968" gradientUnits="userSpaceOnUse">
<stop stop-color="#5A9FD4"/>
<stop offset="1" stop-color="#306998"/>
</linearGradient>
<linearGradient id="paint1_linear_777_435" x1="23.856" y1="25.486" x2="17.5723" y2="16.6742" gradientUnits="userSpaceOnUse">
<stop stop-color="#FFD43B"/>
<stop offset="1" stop-color="#FFE873"/>
</linearGradient>
<radialGradient id="paint2_radial_777_435" cx="0" cy="0" r="1" gradientUnits="userSpaceOnUse" gradientTransform="translate(16.2771 33.3181) rotate(-90) scale(1.9746 8.68003)">
<stop stop-color="#B8B8B8" stop-opacity="0.498"/>
<stop offset="1" stop-color="#7F7F7F" stop-opacity="0"/>
</radialGradient>
</defs>
</svg>
