<svg width="206" height="75" viewBox="0 0 206 75" fill="none" xmlns="http://www.w3.org/2000/svg">
<path d="M98.6 29V33.88H90.04V57H85.16V33.88H76.6V29H98.6ZM116.228 37H121.108V57H116.228L116.008 54.52C115.462 55.4133 114.735 56.14 113.828 56.7C112.935 57.2467 111.875 57.52 110.648 57.52C109.168 57.52 107.782 57.24 106.488 56.68C105.195 56.12 104.055 55.3467 103.068 54.36C102.095 53.3733 101.328 52.2333 100.768 50.94C100.222 49.6467 99.9484 48.26 99.9484 46.78C99.9484 45.3533 100.208 44.0133 100.728 42.76C101.262 41.5067 102.002 40.4067 102.948 39.46C103.895 38.5133 104.988 37.7733 106.228 37.24C107.468 36.7067 108.802 36.44 110.228 36.44C111.548 36.44 112.728 36.7333 113.768 37.32C114.822 37.9067 115.715 38.6533 116.448 39.56L116.228 37ZM110.528 52.82C111.568 52.82 112.488 52.56 113.288 52.04C114.088 51.52 114.715 50.82 115.168 49.94C115.622 49.0467 115.848 48.0667 115.848 47C115.848 45.92 115.622 44.94 115.168 44.06C114.715 43.1667 114.082 42.46 113.268 41.94C112.468 41.42 111.555 41.16 110.528 41.16C109.502 41.16 108.562 41.4267 107.708 41.96C106.868 42.48 106.195 43.18 105.688 44.06C105.195 44.94 104.948 45.92 104.948 47C104.948 48.08 105.202 49.06 105.708 49.94C106.215 50.82 106.888 51.52 107.728 52.04C108.582 52.56 109.515 52.82 110.528 52.82ZM132.594 57.36C131.554 57.2933 130.547 57.0867 129.574 56.74C128.614 56.38 127.76 55.8933 127.014 55.28C126.267 54.6667 125.694 53.9333 125.294 53.08L129.414 51.32C129.574 51.5867 129.834 51.8733 130.194 52.18C130.554 52.4733 130.98 52.72 131.474 52.92C131.98 53.12 132.534 53.22 133.134 53.22C133.64 53.22 134.12 53.1533 134.574 53.02C135.04 52.8733 135.414 52.6533 135.694 52.36C135.987 52.0667 136.134 51.6867 136.134 51.22C136.134 50.7267 135.96 50.3467 135.614 50.08C135.28 49.8 134.854 49.5933 134.334 49.46C133.827 49.3133 133.334 49.18 132.854 49.06C131.587 48.8067 130.407 48.4133 129.314 47.88C128.234 47.3467 127.36 46.66 126.694 45.82C126.04 44.9667 125.714 43.94 125.714 42.74C125.714 41.42 126.06 40.28 126.754 39.32C127.46 38.36 128.374 37.62 129.494 37.1C130.627 36.58 131.847 36.32 133.154 36.32C134.74 36.32 136.194 36.6533 137.514 37.32C138.847 37.9733 139.9 38.9 140.674 40.1L136.814 42.38C136.627 42.06 136.367 41.7667 136.034 41.5C135.7 41.22 135.32 40.9933 134.894 40.82C134.467 40.6333 134.02 40.5267 133.554 40.5C132.954 40.4733 132.407 40.5267 131.914 40.66C131.42 40.7933 131.02 41.02 130.714 41.34C130.42 41.66 130.274 42.0867 130.274 42.62C130.274 43.1267 130.474 43.5067 130.874 43.76C131.274 44 131.754 44.1867 132.314 44.32C132.887 44.4533 133.434 44.6 133.954 44.76C135.127 45.1467 136.227 45.62 137.254 46.18C138.294 46.74 139.127 47.4267 139.754 48.24C140.38 49.0533 140.68 50.0267 140.654 51.16C140.654 52.4533 140.267 53.5867 139.494 54.56C138.72 55.52 137.72 56.2533 136.494 56.76C135.28 57.2667 133.98 57.4667 132.594 57.36ZM166.137 57H159.777L151.917 46.02L150.557 47.64V57H145.677V29H150.557V40.06L159.817 29H166.197L155.097 42.2L166.137 57ZM177.756 57.52C175.916 57.52 174.236 57.0467 172.716 56.1C171.21 55.1533 170.003 53.88 169.096 52.28C168.203 50.68 167.756 48.9133 167.756 46.98C167.756 45.5267 168.016 44.1667 168.536 42.9C169.056 41.62 169.77 40.5 170.676 39.54C171.596 38.5667 172.663 37.8067 173.876 37.26C175.09 36.7133 176.383 36.44 177.756 36.44C179.316 36.44 180.743 36.7733 182.036 37.44C183.343 38.0933 184.45 38.9933 185.356 40.14C186.263 41.2867 186.923 42.5933 187.336 44.06C187.75 45.5267 187.843 47.06 187.616 48.66H172.996C173.183 49.4067 173.49 50.08 173.916 50.68C174.343 51.2667 174.883 51.74 175.536 52.1C176.19 52.4467 176.93 52.6267 177.756 52.64C178.61 52.6533 179.383 52.4533 180.076 52.04C180.783 51.6133 181.37 51.04 181.836 50.32L186.816 51.48C186.003 53.2533 184.79 54.7067 183.176 55.84C181.563 56.96 179.756 57.52 177.756 57.52ZM172.836 45H182.676C182.53 44.2 182.216 43.48 181.736 42.84C181.27 42.1867 180.69 41.6667 179.996 41.28C179.303 40.8933 178.556 40.7 177.756 40.7C176.956 40.7 176.216 40.8933 175.536 41.28C174.856 41.6533 174.276 42.1667 173.796 42.82C173.33 43.46 173.01 44.1867 172.836 45ZM192.49 57L192.47 37H197.35L197.37 38.78C198.05 38.06 198.864 37.4933 199.81 37.08C200.757 36.6533 201.777 36.44 202.87 36.44C203.604 36.44 204.337 36.5467 205.07 36.76L203.15 41.68C202.644 41.48 202.137 41.38 201.63 41.38C200.844 41.38 200.124 41.5733 199.47 41.96C198.83 42.3333 198.317 42.8467 197.93 43.5C197.557 44.14 197.37 44.8533 197.37 45.64V57H192.49Z" fill="#504CEA"/>
<path d="M3.03711 45.7654C3.03711 42.2342 3.71843 38.7373 5.04226 35.475C6.3661 32.2123 8.30639 29.2479 10.7525 26.7509C13.1986 24.2539 16.1024 22.2731 19.2983 20.9217C22.4944 19.5704 25.9197 18.8748 29.3791 18.8748V45.7654H3.03711Z" fill="#504CEA"/>
<path d="M3.03711 45.7655C3.03711 49.2969 3.71843 52.7936 5.04226 56.0563C6.3661 59.3188 8.30639 62.2832 10.7525 64.7802C13.1986 67.2772 16.1024 69.258 19.2983 70.6094C22.4944 71.9608 25.9197 72.6563 29.3791 72.6563V45.7655H3.03711Z" fill="#CFCCF9"/>
<path d="M55.7207 45.7655C55.7207 49.2969 55.0399 52.7936 53.7162 56.0563C52.3924 59.3188 50.4522 62.2832 48.0056 64.7802C45.5596 67.2772 42.6557 69.258 39.4596 70.6094C36.2638 71.9608 32.8383 72.6563 29.3792 72.6563V45.7655H55.7207Z" fill="#E8E6FC"/>
<path d="M71.9624 22.5344C71.9624 33.6853 63.1069 42.725 52.1837 42.725H32.4053V22.5344C32.4053 11.3834 41.2605 2.34375 52.1837 2.34375C63.1069 2.34375 71.9624 11.3834 71.9624 22.5344Z" fill="#FF7917"/>
</svg>
