<svg width="27" height="24" viewBox="0 0 27 24" fill="none" xmlns="http://www.w3.org/2000/svg">
<path d="M26.7446 1.6C26.7446 1.47692 26.681 1.35385 26.6173 1.23077C26.6173 1.16923 26.5536 1.16923 26.5536 1.10769C26.4899 0.984615 26.3626 0.861539 26.2352 0.738462C25.2164 -0.246154 23.6244 -0.246154 22.6056 0.738462L21.0136 2.21538H2.67446C2.10136 2.21538 1.59194 2.4 1.1462 2.64615C0.445744 3.13846 0 3.93846 0 4.86154V21.3538C0 22.2769 0.445744 23.0769 1.20988 23.5077C1.59194 23.8154 2.16504 24 2.67446 24H21.332C22.7966 24 24.0065 22.8308 24.0065 21.3538V6.27692L26.1079 4.24615C26.9357 3.50769 27.1267 2.46154 26.7446 1.6ZM7.95971 3.50769C8.46913 3.50769 8.8512 3.87692 8.8512 4.36923C8.8512 4.86154 8.46913 5.23077 7.95971 5.23077C7.45029 5.23077 7.06822 4.86154 7.06822 4.36923C7.06822 3.87692 7.45029 3.50769 7.95971 3.50769ZM5.15789 3.50769C5.66731 3.50769 6.04938 3.87692 6.04938 4.36923C6.04938 4.86154 5.66731 5.23077 5.15789 5.23077C4.64847 5.23077 4.26641 4.86154 4.26641 4.36923C4.26641 3.87692 4.64847 3.50769 5.15789 3.50769ZM2.35607 3.50769C2.8655 3.50769 3.24756 3.87692 3.24756 4.36923C3.24756 4.86154 2.80182 5.23077 2.35607 5.23077C1.91033 5.23077 1.46459 4.86154 1.46459 4.36923C1.46459 3.87692 1.84665 3.50769 2.35607 3.50769ZM22.6056 7.93846V21.3538C22.6056 22.0308 22.0325 22.5846 21.332 22.5846H4.13905H2.67446C2.48343 22.5846 2.35607 22.5846 2.16504 22.4615C2.10136 22.4615 2.03769 22.4 1.97401 22.3385C1.91033 22.3385 1.91033 22.2769 1.84665 22.2154C1.59194 22.0308 1.46459 21.7231 1.46459 21.3538V7.93846C1.46459 7.13846 2.16504 6.46154 2.99285 6.46154H16.3015C16.3015 6.52308 16.3652 6.64615 16.4288 6.70769L16.0468 7.07692C15.8557 6.89231 15.601 6.89231 15.4737 7.07692C15.3463 7.26154 15.2826 7.50769 15.4737 7.63077L14.3912 8.67692L14.0091 8.36923C13.8817 8.24615 13.7544 8.18462 13.627 8.12308C13.5633 8.06154 13.436 8 13.3723 8C13.3086 8 13.1813 8 13.1176 8C13.0539 8 12.9266 8 12.8629 8C12.6082 8.06154 12.4172 8.18462 12.2261 8.30769C11.7167 8.8 11.7167 9.53846 12.2261 10.0308V10.0923C11.9077 10.0308 11.5893 9.96923 11.3346 9.96923C10.5068 9.96923 9.67901 10.2769 9.04223 10.8923C8.53281 11.3846 8.21442 12.0615 8.15074 12.7385C8.08707 13.6 7.83236 14.4 7.45029 15.1385C7.19558 15.6923 6.81351 16.2462 6.43145 16.7385C6.30409 16.9231 6.11306 17.0462 5.9857 17.2308L5.66731 17.5385C5.73099 17.6 5.79467 17.6615 5.85835 17.6615C7.51397 19.0769 10.0611 19.0769 11.7167 17.6615C12.9266 18.4 14.5822 18.2769 15.6647 17.2308C16.5562 16.4308 16.8109 15.2 16.4925 14.1538H16.5562C17.0656 14.6462 17.8298 14.6462 18.3392 14.1538C18.8486 13.6615 18.8486 12.9231 18.3392 12.4308L18.0208 12.1231L19.1033 11.0769C19.167 11.1385 19.2943 11.2 19.358 11.2C19.4854 11.2 19.5491 11.1385 19.6764 11.0769C19.8674 10.8923 19.8674 10.7077 19.6764 10.5231L20.0585 10.1538C20.1222 10.2154 20.2495 10.2769 20.3132 10.2769C20.4405 10.2769 20.5042 10.2154 20.6316 10.1538C20.8226 9.96923 20.8226 9.78462 20.6316 9.6L22.6056 7.69231C22.6056 7.75385 22.6056 7.81538 22.6056 7.93846Z" fill="white"/>
</svg>
