<svg width="37" height="35" viewBox="0 0 37 35" fill="none" xmlns="http://www.w3.org/2000/svg">
<path d="M35.646 2.95453H21.0605V0L0 3.71219V31.2879L21.0605 35V31.894H35.646C36.377 31.894 36.9696 31.3014 36.9696 30.5704V4.27807C36.9696 3.54706 36.377 2.95446 35.6461 2.95446M25.0645 18.707L21.0607 18.707V11.9485H24.5939L28.4137 15.7682V22.1968H25.8221V19.4647C25.817 19.0225 25.4659 18.7122 25.0645 18.7071M25.9791 11.1911L29.1713 7.99871L32.3635 11.1909L29.1713 14.3832L25.9791 11.1911ZM21.0606 20.2224L24.307 20.2223V25.8284H21.0606V20.2224ZM10.606 23.4469L8.03027 23.371L4.99999 11.7045L7.27268 11.5529L9.35605 20.4165L11.5151 11.2499L14.053 11.1363L10.606 23.4469ZM25.822 26.5857V23.7119H29.1713C29.5897 23.7119 29.9289 23.3727 29.9289 22.9543V15.7684L33.9707 11.7266C34.3004 11.3717 34.235 10.9255 33.9707 10.6552L29.7071 6.39155C29.4112 6.09572 28.9316 6.09579 28.6357 6.39155L24.5939 10.4334H21.0606V4.8485H34.9999V29.8485H21.0605V27.3434H25.0645C25.4933 27.3345 25.8153 27.0176 25.8221 26.5858" fill="#37529A"/>
</svg>
